<svg xmlns="http://www.w3.org/2000/svg" xmlns:xlink="http://www.w3.org/1999/xlink" width="191" height="50" viewBox="0 0 191 50">
  <defs>
    <clipPath id="clip-path">
      <rect id="長方形_12" data-name="長方形 12" width="191" height="50" transform="translate(54 36)" fill="none" stroke="#707070" stroke-width="1"/>
    </clipPath>
    <clipPath id="clip-path-2">
      <rect id="長方形_8" data-name="長方形 8" width="245.833" height="90.96" fill="none"/>
    </clipPath>
    <clipPath id="clip-path-3">
      <path id="パス_8" data-name="パス 8" d="M146.978,109.1l.142-.025a22.986,22.986,0,0,1-1.25,5.468c-.773,2.028-1.786,3.3-2.643,3.3h0c-.857,0-1.87-1.26-2.643-3.288a22.9,22.9,0,0,1-1.239-5.374,23.863,23.863,0,0,0,3.594.271,23.4,23.4,0,0,0,4.038-.351m-16.249-2.9-.015-.172a23.164,23.164,0,0,0,6.187,2.649,26.443,26.443,0,0,0,1.475,6.806,13.122,13.122,0,0,0,.6,1.358,12.581,12.581,0,0,1-8.25-10.64m17.349,9.271a26.622,26.622,0,0,0,1.491-6.974,23.514,23.514,0,0,0,6.072-2.773l.119-.076a12.576,12.576,0,0,1-8.291,11.193,13,13,0,0,0,.61-1.37m1.637-10.291a29.885,29.885,0,0,0-1.637-10.291,14.031,14.031,0,0,0-.777-1.707l-.015-.028a12.591,12.591,0,0,1,8.3,9.713,21.081,21.081,0,0,1-5.881,3.093q.008-.388.008-.78M130.8,103.233a12.588,12.588,0,0,1,8.273-10.055l.1-.033a13.884,13.884,0,0,0-.795,1.74,29.9,29.9,0,0,0-1.637,10.3q0,.489.012.973a20.887,20.887,0,0,1-5.95-2.921m8.348,3.5q-.033-.767-.033-1.553a27.292,27.292,0,0,1,1.467-9.371c.773-2.029,1.786-3.289,2.643-3.289v0c.857,0,1.87,1.26,2.643,3.288a27.277,27.277,0,0,1,1.467,9.366q0,.726-.028,1.437a21.1,21.1,0,0,1-4.369.458,21.343,21.343,0,0,1-3.789-.336m-10.959-1.711a15.05,15.05,0,0,0,15.033,15.033h0l.246,0a15.033,15.033,0,1,0-15.281-15.031m12.888-19.137a2.17,2.17,0,1,0,2.17-2.17,2.173,2.173,0,0,0-2.17,2.17" transform="translate(-128.191 -83.716)" fill="none"/>
    </clipPath>
  </defs>
  <g id="マスクグループ_1" data-name="マスクグループ 1" transform="translate(-54 -36)" clip-path="url(#clip-path)">
    <g id="グループ_5" data-name="グループ 5" transform="translate(25.982 17.412)">
      <path id="パス_1" data-name="パス 1" d="M248.387,117.632h7.859v18.919h3.542V117.632l7.9.014-.018-3.373H248.387Z" transform="translate(-173.471 -79.808)" fill="#303030"/>
      <path id="パス_2" data-name="パス 2" d="M326.352,126.846h10.286v-3.359H326.352v-5.856H337.4v-3.358H322.81v22.277h15.144v-3.358h-11.6Z" transform="translate(-225.447 -79.807)" fill="#303030"/>
      <g id="グループ_2" data-name="グループ 2">
        <g id="グループ_1" data-name="グループ 1" clip-path="url(#clip-path-2)">
          <path id="パス_3" data-name="パス 3" d="M398.537,129.686a6.763,6.763,0,0,1-2.286,2.053,6.487,6.487,0,0,1-3.132.729,7.948,7.948,0,0,1-3.275-.647,7.186,7.186,0,0,1-2.439-1.763,7.844,7.844,0,0,1-1.533-2.595,9.244,9.244,0,0,1-.533-3.143,9.786,9.786,0,0,1,.563-3.342,8.325,8.325,0,0,1,1.58-2.7,7.38,7.38,0,0,1,2.442-1.809,7.537,7.537,0,0,1,3.195-.661,6.665,6.665,0,0,1,2.783.616,5.8,5.8,0,0,1,2.213,1.746l.183.238,2.928-2.233-.184-.24a8.194,8.194,0,0,0-3.51-2.637,11.6,11.6,0,0,0-4.321-.848,12.306,12.306,0,0,0-4.707.88,10.687,10.687,0,0,0-3.669,2.473,11.319,11.319,0,0,0-2.375,3.773,13.059,13.059,0,0,0-.847,4.747,11.563,11.563,0,0,0,6.678,10.5,11.043,11.043,0,0,0,4.767,1.009,10.755,10.755,0,0,0,3.387-.49,11.827,11.827,0,0,0,2.5-1.132,8.944,8.944,0,0,0,1.679-1.3,10.1,10.1,0,0,0,.886-1l.175-.24-2.965-2.232Z" transform="translate(-266.515 -78.532)" fill="#303030"/>
          <path id="パス_4" data-name="パス 4" d="M471.027,123.274H460.4v-9h-3.542v22.277H460.4v-9.919h10.632v9.919h3.542V114.274h-3.542Z" transform="translate(-319.062 -79.808)" fill="#303030"/>
          <rect id="長方形_7" data-name="長方形 7" width="3.542" height="22.277" transform="translate(169.375 34.466)" fill="#303030"/>
          <path id="パス_5" data-name="パス 5" d="M620.811,123.7a11.374,11.374,0,0,0-2.641-1.054,23.609,23.609,0,0,1-2.539-.816,5.909,5.909,0,0,1-1.88-1.135,2.425,2.425,0,0,1-.7-1.89,3.038,3.038,0,0,1,.183-.974,2.627,2.627,0,0,1,.62-.974,3.379,3.379,0,0,1,1.2-.756,5.306,5.306,0,0,1,1.925-.3,4.669,4.669,0,0,1,2.158.487,3.686,3.686,0,0,1,1.446,1.273l.193.3,2.863-2.606-.181-.221a6.165,6.165,0,0,0-2.994-2.088,12.063,12.063,0,0,0-3.485-.5,8.825,8.825,0,0,0-3.471.621,7.511,7.511,0,0,0-2.375,1.549,6.08,6.08,0,0,0-1.8,4.193,6.464,6.464,0,0,0,.844,3.515,6.612,6.612,0,0,0,2.069,2.068,10.784,10.784,0,0,0,2.645,1.181c.911.271,1.77.556,2.551.851a6.62,6.62,0,0,1,1.888,1.052,2.038,2.038,0,0,1,.687,1.681,2.727,2.727,0,0,1-.356,1.408,3.472,3.472,0,0,1-.944,1.043,4.272,4.272,0,0,1-1.3.643,4.934,4.934,0,0,1-1.414.217,5.817,5.817,0,0,1-2.431-.539,4.55,4.55,0,0,1-1.91-1.653l-.189-.284-2.887,2.484.161.224a6.818,6.818,0,0,0,3.1,2.37,11.031,11.031,0,0,0,4.059.756,9.575,9.575,0,0,0,3.034-.475,7.463,7.463,0,0,0,2.487-1.372,6.569,6.569,0,0,0,1.685-2.213,6.8,6.8,0,0,0,.626-2.946,5.533,5.533,0,0,0-.852-3.251,6.311,6.311,0,0,0-2.073-1.864" transform="translate(-425.026 -78.532)" fill="#303030"/>
          <path id="パス_6" data-name="パス 6" d="M671.354,174.346a2.191,2.191,0,1,0,1.533.642,2.1,2.1,0,0,0-1.533-.642" transform="translate(-467.35 -121.762)" fill="#303030"/>
          <path id="パス_7" data-name="パス 7" d="M585.913,174.346a2.192,2.192,0,1,0,1.532.642,2.1,2.1,0,0,0-1.532-.642" transform="translate(-407.678 -121.762)" fill="#303030"/>
        </g>
      </g>
      <g id="グループ_4" data-name="グループ 4" transform="translate(38.663 25.249)">
        <g id="グループ_3" data-name="グループ 3" clip-path="url(#clip-path-3)">
          <rect id="長方形_9" data-name="長方形 9" width="30.505" height="36.778" transform="translate(-0.219 -0.219)" fill="#00abae"/>
        </g>
      </g>
    </g>
  </g>
</svg>
